<?xml version="1.0" encoding="UTF-8"?>
<svg version="1.1" viewBox="0 0 2000 2000" width="500" height="500" xmlns="http://www.w3.org/2000/svg">
<path transform="translate(993,209)" d="m0 0 4 4 17 33 23 46 14 31 7 18 1 4v13l-7 11-13 15-12 17-7 14-3 13v19l4 15 10 24 16 36 16 34 17 37 13 28 8 16 20 41 12 24 8-1 30-10 28-11 23-12 14-9 12-9 14-12 15-14 12-11 10-10 8-7 8-8 8-7 13-12 8-7 14-12 15-13 17-14 10-7 10-4 33-6 25-6 21-9 17-10 16-11 14-11 15-14 9-7h1l-1 9-9 29-10 28-14 38-12 29-8 15-8 5-16 3-29 3-16 4-14 7-10 8-9 13-9 20-17 44-18 50-20 55-13 37-11 31-5 15-1 6 9 6 17 7 28 12 16 5 34 7 26 2 40-1h99l50 2 13 3 12 7 16 12 15 10 16 9 19 8 15 4 25 4 18 2 24 2 2 2-10 5-27 12-34 16-26 11-25 11-17 6-4 1h-9l-8-5-18-14-14-9-16-8-11-4-6-1h-18l-15 4-19 7-26 11-29 13-23 10-29 13-62 27-26 11-27 13-1 2 12 36 9 22 12 25 12 20 11 14 11 12 58 58 7 8 12 12 7 8 16 16 7 8 12 13 9 13 2 5 4 30 6 26 6 16 8 15 12 17 8 10 12 14 9 10 7 8v3l-7-1-15-5-42-12-30-10-36-13-13-7-4-5-5-22-5-26-6-18-7-12-8-8-11-7-19-8-33-12-19-7-32-11-126-44-32-11-6-2-2 5-12 23-11 23-9 22-8 28-4 30-1 14-5 133-2 37-5 13-10 14-13 18-9 14-8 16-6 18-5 27-2 26-1 29-5-5-13-23-17-32-14-29-14-32-6-17v-8l9-14 10-12 9-13 9-16 5-16 1-7v-10l-4-16-10-25-16-36-18-39-18-41-16-33-17-36-11-23-6-11v-2l-28 9-27 10-29 14-20 12-11 9-14 12-28 28-8 7-11 11-8 7-16 15-11 9-7 7-8 7-10 9-8 7-13 11-12 6-12 3-23 3-24 6-21 9-14 8-14 10-11 9-10 9-12 11-8 7h-3l2-10 7-24 11-36 9-26 13-33 8-15 6-5 13-3 36-5 13-4 14-7 10-9 7-9 8-16 11-27 8-21 11-29 13-33 11-28 27-75 8-24 2-4-1-4-15-8-37-15-17-6-26-6-13-2-13-1h-119l-67-3-19-2-13-4-11-7-18-13-15-10-14-8-18-7-26-6-21-3-33-3 1-3 16-8 30-14 35-16 21-9 23-9 15-5 7 1 9 5 14 12 14 10 14 8 17 6 5 1h14l17-4 19-7 33-14 26-11 18-8 50-22 40-18 31-13 28-13h2l-1-7-6-17-12-29-9-19-11-20-12-17-11-13-9-10-12-13-64-64-7-8-21-21-7-8-11-13-6-12-4-13-5-27-8-28-8-18-8-14-11-14-11-13-15-16-9-9-1-4 9 1 24 7 40 12 38 13 22 9 14 7 6 7 4 13 5 34 7 22 6 11 9 10 8 6 19 9 94 34 29 10 30 11 36 12 39 14 23 8 3-1 8-16 12-25 10-23 8-26 5-26 2-21 1-29 1-51 2-46 5-54 3-9 10-14 12-17 8-13 11-21 6-18 4-17 4-38 1-22z" fill="#E9B033"/>
<path transform="translate(969,707)" d="m0 0h57l23 2 35 8 20 7 26 11 18 10 15 10 13 9 13 10 15 13 7 7 7 8 9 10 11 14 11 16 9 15 13 26 10 26 6 22 4 21 3 25v47l-4 33-5 20-5 17-10 25-8 16-9 16-7 10-8 12-13 16-9 10-18 18-22 18-11 8-11 7-12 7-28 14-32 12-15 3-21 5-23 2h-45l-21-2-15-3-26-6-26-9-24-11-18-10-15-10-14-10-11-9-14-12-10-10-7-8-10-11-13-18-11-18-10-19-9-21-5-12-5-16-5-21-4-29-1-18v-18l2-30 3-20 8-30 11-29 8-16 9-17 13-19 9-12 12-14 7-8 12-12 7-6h2v-2l10-8 13-10 15-10 11-6 18-10 17-7 13-5 17-5 29-7z" fill="#FEFEFE"/>
<path transform="translate(1561,782)" d="m0 0h3l-2 5-11 15-14 15-8 8-10 8-17 10-24 9-28 7-15 6-15 9-17 13-13 11-12 9-5-1-19-7-20-9-8-5 1-5 11-31 6-18 6-16 4-3 21-3h47l40 3h22l25-5 20-8 25-13z" fill="#E9B034"/>
<path transform="translate(1387,1097)" d="m0 0h6l14 10 12 11 6 5 7 8 7 7 9 11 11 14 9 11 6 7 16 12 16 9 16 7 20 6 11 3-1 3-9 2-15 2h-28l-25-4-24-9-21-11-12-7-16-5-13-3-24-3-27-2-3-3-11-25-8-22 1-4 18-8 26-11z" fill="#E9B034"/>
<path transform="translate(1243,458)" d="m0 0 3 3 2 21v26l-3 21-6 16-10 19-15 22-7 12-6 20-6 52-4 5-34 12-13 5-4-1-15-36-10-23-3-8v-6l10-14 11-12 13-13 11-9 26-20 14-11 9-8 11-14 8-14 6-12 11-32z" fill="#E9B034"/>
<path transform="translate(621,1093)" d="m0 0 5 1 25 9 16 7 8 5-1 6-13 37-10 25-2 4-9 2-20 2h-32l-22-2-27-4h-27l-18 4-18 6-28 13-6 2 4-8 8-11 9-10 8-8 12-9 17-10 18-7 33-8 16-6 15-10 25-20z" fill="#E9B034"/>
<path transform="translate(475,776)" d="m0 0h32l17 3 17 6 21 11 14 8 10 4 26 4 48 4 5 8 16 40v5l-51 22-19 8-5-1-10-7-11-8-14-12-24-24-7-8-9-10-11-11-16-11-15-8-15-6-30-8-3-3 8-3z" fill="#E9B034"/>
<path transform="translate(780,456)" d="m0 0 5 1 14 10 10 9 14 14 9 13 8 17 6 19 5 23 6 15 10 16 10 13 12 16 8 11 1 5-9 21-11 22-3 5-10-3-27-10-18-7-17-7-2-6-3-31v-12l4-40 4-30-1-17-5-23-4-11-11-23-5-8z" fill="#E9B034"/>
<path transform="translate(850,1307)" d="m0 0h5l7 14 9 21 13 29 1 9-10 13-9 10-10 10-14 11-19 14-21 16-3 3h-2v2h-2v2h-2l-2 4-7 10-8 16-8 18-9 24h-3l-3-21v-27l2-16 5-16 5-13 9-16 11-19 6-14 5-24 4-30 1-10 4-4 26-10z" fill="#E9B034"/>
<path transform="translate(1121,1316)" d="m0 0 7 1 30 10 28 11 10 5 1 3 1 15v35l-3 22-3 18-1 10v28l4 18 6 17 15 30-2 1-11-6-12-11-8-7-11-12-11-18-7-15-8-26-4-17-8-16-11-14-14-18-9-11-2-5 7-17 11-23z" fill="#E9B034"/>
<path transform="translate(992,703)" d="m0 0 30 1 31 3 25 5 18 6 24 9 18 8 11 6 16 10 17 13 9 7 7 6v2l5 2v2l4 2 4 4v2l4 2v2h2l4 6 9 10v2h2l9 12 2 4h2l14 22 11 20 7 16 9 24 4 16 5 25 3 27v40l-4 39-5 20-4 13-6 16-6 17-8 15-8 13-5 7-3 6h-2l-2 5-20 26-24 24h-2l-2 4h-2v2l-12 9-13 10-14 10-23 11-9 5-21 9-20 7-23 5-25 4-12 1h-39l-31-3-34-7-18-6-18-7-15-7-18-10-11-6-12-8-16-12-13-11-7-6-7-8-2-4h-2l-6-7v-2l-4-2-12-16-12-17-6-9-13-26-9-20-6-18-6-26-3-22-1-14v-45l2-26 5-22 5-19 6-16 3-9 8-18 8-15 8-13 12-19 3-5 4-4h2l2-4 7-8 8-7 21-21 5-2 1-3 4-4h3v-2l8-5 4-1v-2l8-5 30-16 9-4 11-5 18-6 16-5 37-7 7-1zm-23 4-19 2-40 10-19 7-10 4-16 8-16 9-13 8-11 8-18 14v2l-4 2-13 12-10 10-9 11-11 14-16 24-13 25-6 14-9 24-8 32-3 25-1 20v18l2 26 4 26 7 27 6 16 7 15 8 16 10 19 11 16 10 13 14 15 7 8 8 8 11 9 15 12 15 10 18 11 16 8 17 8 29 10 31 7 15 2 13 1h45l23-2 24-6 15-3 18-7 11-4 24-12 16-9 17-11 12-10 12-9 28-28 11-14 6-8 10-15 7-11 11-20 8-20 7-19 7-28 4-33v-47l-3-25-4-21-8-28-10-24-13-26-13-20-10-13-13-16-5-6-15-15-11-9-10-8-13-9-15-10-15-9-15-7-17-7-24-8-31-7-23-2z" fill="#F4D48C"/>
</svg>
